<mxfile host="app.diagrams.net" agent="Mozilla/5.0 (Macintosh; Intel Mac OS X 10_15_7) AppleWebKit/537.36 (KHTML, like Gecko) Chrome/133.0.0.0 Safari/537.36" version="26.0.16">
  <diagram name="Page-1" id="9BwkSdJM3UsWRwAytRGy">
    <mxGraphModel dx="1468" dy="1984" grid="1" gridSize="10" guides="1" tooltips="1" connect="1" arrows="1" fold="1" page="1" pageScale="1" pageWidth="827" pageHeight="1169" math="0" shadow="0">
      <root>
        <mxCell id="0" />
        <mxCell id="1" parent="0" />
        <mxCell id="UzF8o4GN21DXVbc5qYGS-12" value="" style="whiteSpace=wrap;html=1;aspect=fixed;align=left;" vertex="1" parent="1">
          <mxGeometry x="130" y="-220" width="470" height="470" as="geometry" />
        </mxCell>
        <mxCell id="UzF8o4GN21DXVbc5qYGS-8" style="edgeStyle=orthogonalEdgeStyle;rounded=0;orthogonalLoop=1;jettySize=auto;html=1;entryX=0;entryY=0.5;entryDx=0;entryDy=0;" edge="1" parent="1" source="UzF8o4GN21DXVbc5qYGS-4" target="UzF8o4GN21DXVbc5qYGS-7">
          <mxGeometry relative="1" as="geometry" />
        </mxCell>
        <mxCell id="UzF8o4GN21DXVbc5qYGS-4" value="" style="rounded=0;whiteSpace=wrap;html=1;" vertex="1" parent="1">
          <mxGeometry x="180" y="-170" width="80" height="230" as="geometry" />
        </mxCell>
        <mxCell id="UzF8o4GN21DXVbc5qYGS-1" value="SQL" style="shape=datastore;whiteSpace=wrap;html=1;" vertex="1" parent="1">
          <mxGeometry x="740" y="100" width="130" height="100" as="geometry" />
        </mxCell>
        <mxCell id="UzF8o4GN21DXVbc5qYGS-20" style="edgeStyle=none;rounded=0;orthogonalLoop=1;jettySize=auto;html=1;entryX=0;entryY=0.5;entryDx=0;entryDy=0;" edge="1" parent="1" source="UzF8o4GN21DXVbc5qYGS-2" target="UzF8o4GN21DXVbc5qYGS-1">
          <mxGeometry relative="1" as="geometry" />
        </mxCell>
        <mxCell id="UzF8o4GN21DXVbc5qYGS-2" value="JPA" style="rounded=0;whiteSpace=wrap;html=1;" vertex="1" parent="1">
          <mxGeometry x="383" y="100" width="120" height="60" as="geometry" />
        </mxCell>
        <mxCell id="UzF8o4GN21DXVbc5qYGS-3" value="" style="aspect=fixed;sketch=0;html=1;dashed=0;whitespace=wrap;verticalLabelPosition=bottom;verticalAlign=top;fillColor=#2875E2;strokeColor=#ffffff;points=[[0.005,0.63,0],[0.1,0.2,0],[0.9,0.2,0],[0.5,0,0],[0.995,0.63,0],[0.72,0.99,0],[0.5,1,0],[0.28,0.99,0]];shape=mxgraph.kubernetes.icon2;kubernetesLabel=1;prIcon=api" vertex="1" parent="1">
          <mxGeometry x="200" y="-150" width="50" height="48" as="geometry" />
        </mxCell>
        <mxCell id="UzF8o4GN21DXVbc5qYGS-5" value="" style="aspect=fixed;sketch=0;html=1;dashed=0;whitespace=wrap;verticalLabelPosition=bottom;verticalAlign=top;fillColor=#2875E2;strokeColor=#ffffff;points=[[0.005,0.63,0],[0.1,0.2,0],[0.9,0.2,0],[0.5,0,0],[0.995,0.63,0],[0.72,0.99,0],[0.5,1,0],[0.28,0.99,0]];shape=mxgraph.kubernetes.icon2;kubernetesLabel=1;prIcon=api" vertex="1" parent="1">
          <mxGeometry x="200" y="-20" width="50" height="48" as="geometry" />
        </mxCell>
        <mxCell id="UzF8o4GN21DXVbc5qYGS-6" value="" style="aspect=fixed;sketch=0;html=1;dashed=0;whitespace=wrap;verticalLabelPosition=bottom;verticalAlign=top;fillColor=#2875E2;strokeColor=#ffffff;points=[[0.005,0.63,0],[0.1,0.2,0],[0.9,0.2,0],[0.5,0,0],[0.995,0.63,0],[0.72,0.99,0],[0.5,1,0],[0.28,0.99,0]];shape=mxgraph.kubernetes.icon2;kubernetesLabel=1;prIcon=api" vertex="1" parent="1">
          <mxGeometry x="200" y="-90" width="50" height="48" as="geometry" />
        </mxCell>
        <mxCell id="UzF8o4GN21DXVbc5qYGS-7" value="Spring Components&lt;div&gt;Services&lt;/div&gt;&lt;div&gt;Business Logic&lt;/div&gt;" style="rounded=0;whiteSpace=wrap;html=1;" vertex="1" parent="1">
          <mxGeometry x="349" y="-140" width="201" height="170" as="geometry" />
        </mxCell>
        <mxCell id="UzF8o4GN21DXVbc5qYGS-10" style="edgeStyle=orthogonalEdgeStyle;rounded=0;orthogonalLoop=1;jettySize=auto;html=1;entryX=0.558;entryY=0.067;entryDx=0;entryDy=0;entryPerimeter=0;" edge="1" parent="1" source="UzF8o4GN21DXVbc5qYGS-7" target="UzF8o4GN21DXVbc5qYGS-2">
          <mxGeometry relative="1" as="geometry" />
        </mxCell>
        <mxCell id="UzF8o4GN21DXVbc5qYGS-17" value="" style="aspect=fixed;sketch=0;html=1;dashed=0;whitespace=wrap;verticalLabelPosition=bottom;verticalAlign=top;fillColor=#2875E2;strokeColor=#ffffff;points=[[0.005,0.63,0],[0.1,0.2,0],[0.9,0.2,0],[0.5,0,0],[0.995,0.63,0],[0.72,0.99,0],[0.5,1,0],[0.28,0.99,0]];shape=mxgraph.kubernetes.icon2;kubernetesLabel=1;prIcon=api" vertex="1" parent="1">
          <mxGeometry x="730" y="-390" width="104.17" height="100" as="geometry" />
        </mxCell>
        <mxCell id="UzF8o4GN21DXVbc5qYGS-19" style="edgeStyle=none;rounded=0;orthogonalLoop=1;jettySize=auto;html=1;exitX=1;exitY=0.5;exitDx=0;exitDy=0;entryX=0.5;entryY=1;entryDx=0;entryDy=0;entryPerimeter=0;" edge="1" parent="1" source="UzF8o4GN21DXVbc5qYGS-7" target="UzF8o4GN21DXVbc5qYGS-17">
          <mxGeometry relative="1" as="geometry" />
        </mxCell>
      </root>
    </mxGraphModel>
  </diagram>
</mxfile>
